#N canvas 138 56 862 900 10;
#X obj 13 39 cnv 15 800 160 empty empty inputs 25 15 0 20 -203904 -66577
0;
#X obj 19 120 im.sensor;
#X obj 19 80 im.microphone;
#X obj 19 100 im.linein;
#X obj 19 140 im.electrode;
#X obj 13 202 cnv 15 400 130 empty empty basic_sound_sources 25 15
0 20 -204786 -66577 0;
#X obj 20 238 im.noise;
#X obj 20 258 im.sinewave;
#X obj 20 278 im.sawtooth;
#X obj 12 448 cnv 15 400 156 empty empty signal_processors 25 15 0
20 -261234 -66577 0;
#X obj 416 552 cnv 15 396 52 empty empty outputs 25 15 0 20 -232576
-66577 0;
#X obj 425 582 im.speaker;
#X obj 416 335 cnv 15 396 110 empty empty note_generators 25 15 0 20
-261682 -66577 0;
#X obj 425 369 im.scale;
#X obj 416 448 cnv 15 396 100 empty empty audio_triggers 25 15 0 20
-204800 -66577 0;
#X obj 425 480 im.envelopefollower;
#X obj 425 500 im.pitchtracker;
#X obj 425 520 im.audiotrigger;
#X obj 20 485 im.echo;
#X obj 20 505 im.distort;
#X obj 20 525 im.chorus;
#X obj 20 565 im.filter;
#X obj 12 607 cnv 15 800 240 empty empty misc_control 25 15 0 20 -262130
-66577 0;
#X obj 18 686 im.lfo;
#X obj 17 746 im.debounce;
#X obj 18 706 im.sequence;
#X obj 18 726 im.step;
#X obj 12 335 cnv 15 400 110 empty empty samplers 25 15 0 20 -262130
-66577 0;
#X obj 20 369 im.player;
#X obj 20 389 im.oneshot;
#X obj 20 409 im.looper;
#X text 517 15 right-click on these objects to access help files,
f 50;
#X obj 19 160 im.makeymakey;
#X text 109 100 take audio from a line in;
#X text 109 139 requires a touch board in MIDI mode;
#X obj 20 298 im.pulsewave;
#X text 108 369 play a sound file;
#X text 107 388 record and play a sound file;
#X text 107 409 record and play a loop;
#X text 109 80 take audio from the microphone;
#X text 110 238 white noise generator;
#X text 553 499 track pitch and send to an oscillator;
#X text 554 479 mimic the intensity of an audio input;
#X text 553 518 generate triggers from percussive sounds;
#X text 149 747 ignore triggers in rapid succession;
#X text 150 704 play an 8 step sequence into im.scale;
#X text 108 484 a feedback echo;
#X text 107 503 simple distortion/overdrive;
#X text 108 524 wobbly chorus effect;
#X text 108 563 a resonant lowpass filter;
#X text 668 858 www.instrumentmaker.org;
#X obj 416 202 cnv 15 396 130 empty empty instruments 25 15 0 20 -232576
-66577 0;
#X obj 425 80 im.keypress;
#X obj 425 100 im.keydoublepress;
#X obj 425 140 im.keyhold;
#X obj 425 120 im.keyrelease;
#X obj 425 239 im.acid;
#X obj 425 259 im.fizzy;
#X obj 425 279 im.tunedperc;
#X obj 425 389 im.note;
#X obj 424 643 im.toggle;
#X obj 424 667 im.flip;
#X text 553 80 read key presses;
#X text 553 120 read a key release;
#X text 553 140 read a press and hold of a key;
#X text 554 100 read a double press of a key;
#X text 554 278 synthesised gong;
#X text 554 258 Juno-esque mono synthesiser;
#X text 553 368 trigger degrees of a scale;
#X text 553 389 trigger a specific note;
#X obj 20 545 im.volume;
#X text 107 543 change the volume of a signal;
#X text 109 159 a set of makey makey keypresses;
#X text 109 120 read dedicated im board sensors;
#X text 109 257 sine wave generator;
#X text 109 277 sawtooth wave generator;
#X text 109 297 pulse wave generator;
#X text 554 581 output an audio signal;
#X text 150 684 a low frequency oscillator;
#X text 150 726 generate steps for im.sequence;
#X text 556 646 toggle a trigger signal;
#X text 556 669 invert a trigger signal;
#X obj 424 691 im.snapshot;
#X text 556 693 view a control signal;
#X obj 17 766 im.retrigger;
#X text 148 766 retrigger a signal at a set interval;
#X obj 425 299 im.strummi;
#X text 554 299 a strummable stringed instrument;
#X obj 18 646 im.envelope;
#X obj 18 666 im.adaptivebellows;
#X obj 17 786 im.bouncyball;
#X obj 17 806 im.strangepulses;
#X obj 424 719 im.button;
#X text 150 646 an envelope generator;
#X text 149 664 an adaptive envelope generator;
#X text 149 785 trigger events with a bouncy ball model;
#X text 149 804 generate randomised trigger events;
#X text 557 718 emulate button/switch interaction;
#X text 554 236 tb-303 inspired synthesiser;
