#N canvas 493 111 1120 670 12;
#X obj 123 236 snapshot~;
#X obj 146 200 metro 5;
#X obj 146 159 loadbang;
#X msg 146 179 1;
#X obj 123 484 pack;
#X obj 163 302 sel 1;
#X obj 163 322 bng 15 250 50 0 empty empty empty 17 7 0 10 -262144
-1 -1;
#X obj 206 328 + 1;
#X obj 163 340 f 0;
#X obj 206 351 % 2;
#X obj 163 282 change;
#X obj 163 372 sel 0 1;
#X obj 163 395 timer;
#X obj 163 418 * 10;
#X obj 163 441 clip 50 2000;
#X obj 123 505 line~;
#X obj 123 531 outlet~;
#X obj 123 134 inlet~;
#X obj 251 268 loadbang;
#X obj 251 294 list store \$1;
#X obj 251 317 clip 0 1;
#X obj 251 359 * 9.99;
#X obj 251 380 + 0.01;
#X obj 251 338 pow 2;
#X obj 49 367 del 50;
#X obj 48 338 loadbang;
#X connect 0 0 10 0;
#X connect 0 0 4 0;
#X connect 1 0 0 0;
#X connect 2 0 3 0;
#X connect 3 0 1 0;
#X connect 4 0 15 0;
#X connect 5 0 6 0;
#X connect 6 0 8 0;
#X connect 7 0 9 0;
#X connect 8 0 7 0;
#X connect 8 0 11 0;
#X connect 9 0 8 1;
#X connect 10 0 5 0;
#X connect 11 0 12 0;
#X connect 11 1 12 1;
#X connect 12 0 13 0;
#X connect 13 0 14 0;
#X connect 14 0 4 1;
#X connect 15 0 16 0;
#X connect 17 0 0 0;
#X connect 18 0 19 0;
#X connect 19 0 20 0;
#X connect 20 0 23 0;
#X connect 21 0 22 0;
#X connect 22 0 13 1;
#X connect 23 0 21 0;
#X connect 24 0 12 1;
#X connect 25 0 24 0;
#X connect 25 0 12 0;
