#N canvas 25 27 1296 631 10;
#X obj 75 217 tgl 60 0 \$0-fromButton1 \$0-toButton1 empty 17 7 0 10
-262144 -1 -1 0 1;
#X obj 62 100 symbol \$0-canvas;
#X msg 167 132 \; \$1 color 16;
#X obj 167 100 symbol \$0-canvas;
#X obj 62 45 r \$0-fromButton1;
#X obj 74 216 cnv 15 62 62  \$0-canvas empty 2 7 0 12 -166441 -1
0;
#X msg 62 133 \; \$1 color 1;
#X obj 62 71 sel 0 1;
#X obj 63 307 r \$0-fromButton1;
#X obj 63 353 sig~;
#X obj 63 410 outlet~;
#X obj 138 409 outlet~;
#X obj 138 352 expr~ $v1 != 1;
#X obj 829 360 f;
#X obj 869 360 + 1;
#X msg 789 329 0;
#X text 675 330 reset counter >;
#X obj 829 330 metro 1;
#X obj 829 267 tgl 15 0 empty empty empty 17 7 0 10 -262144 -1 -1 0
1;
#X floatatom 829 389 5 0 0 0 - - -;
#X obj 789 298 sel 0;
#X msg 953 225 1;
#X msg 987 225 0;
#X obj 829 441 bng 15 250 50 0 empty empty empty 17 7 0 10 -262144
-1 -1;
#X obj 914 277 spigot;
#X obj 953 254 tgl 15 0 empty empty empty 17 7 0 10 -262144 -1 -1 0
1;
#X obj 914 302 bng 15 250 50 0 empty empty empty 17 7 0 10 -262144
-1 -1;
#X obj 888 193 t b b;
#X msg 914 326 1;
#X obj 888 143 sel 1 0;
#X obj 914 376 outlet~;
#X msg 1094 331 0;
#X obj 1094 196 bng 15 250 50 0 empty empty empty 17 7 0 10 -262144
-1 -1;
#X obj 888 117 r \$0-fromButton1;
#X obj 829 415 sel \$1;
#X text 174 44 GUI;
#X text 887 85 DOUBLE PRESS;
#X obj 438 265 f;
#X obj 478 265 + 1;
#X msg 398 239 0;
#X obj 438 240 metro 1;
#X obj 438 182 tgl 15 0 empty empty empty 17 7 0 10 -262144 -1 -1 0
1;
#X floatatom 438 290 5 0 0 0 - - -;
#X obj 398 205 sel 0;
#X msg 438 158 1;
#X msg 577 161 0;
#X obj 438 129 sel 1 0;
#X obj 577 364 sig~;
#X obj 577 391 outlet~;
#X msg 438 333 1;
#X text 285 239 reset counter >;
#X obj 682 298 r \$0-resetDouble;
#X obj 987 196 r \$0-resetDouble;
#X obj 437 106 r \$0-fromButton1;
#X text 434 84 PRESS AND HOLD;
#X obj 478 333 s \$0-resetHold;
#X obj 304 205 r \$0-resetHold;
#X obj 438 311 sel \$1;
#X obj 829 464 s \$0-resetDouble;
#X connect 1 0 6 0;
#X connect 3 0 2 0;
#X connect 4 0 7 0;
#X connect 7 0 1 0;
#X connect 7 1 3 0;
#X connect 8 0 9 0;
#X connect 8 0 12 0;
#X connect 9 0 10 0;
#X connect 12 0 11 0;
#X connect 13 0 14 0;
#X connect 13 0 19 0;
#X connect 14 0 13 1;
#X connect 15 0 13 1;
#X connect 17 0 13 0;
#X connect 18 0 17 0;
#X connect 18 0 20 0;
#X connect 19 0 34 0;
#X connect 20 0 15 0;
#X connect 21 0 25 0;
#X connect 21 0 18 0;
#X connect 22 0 25 0;
#X connect 22 0 18 0;
#X connect 23 0 58 0;
#X connect 24 0 26 0;
#X connect 25 0 24 1;
#X connect 26 0 28 0;
#X connect 27 0 21 0;
#X connect 27 1 24 0;
#X connect 28 0 30 0;
#X connect 29 0 27 0;
#X connect 29 1 32 0;
#X connect 31 0 30 0;
#X connect 32 0 31 0;
#X connect 33 0 29 0;
#X connect 34 0 23 0;
#X connect 37 0 38 0;
#X connect 37 0 42 0;
#X connect 38 0 37 1;
#X connect 39 0 37 1;
#X connect 40 0 37 0;
#X connect 41 0 40 0;
#X connect 41 0 43 0;
#X connect 42 0 57 0;
#X connect 43 0 39 0;
#X connect 44 0 41 0;
#X connect 45 0 41 0;
#X connect 45 0 47 0;
#X connect 46 0 44 0;
#X connect 46 1 45 0;
#X connect 47 0 48 0;
#X connect 49 0 47 0;
#X connect 51 0 15 0;
#X connect 52 0 22 0;
#X connect 53 0 46 0;
#X connect 56 0 39 0;
#X connect 57 0 49 0;
#X connect 57 0 55 0;
#X coords 0 -1 1 1 90 84 1 60 200;
