#N canvas 481 116 534 653 12;
#X obj 171 548 im.speaker;
#X obj 11 10 cnv 15 500 120 empty empty instrument_maker 10 22 0 40
-4032 -66577 0;
#X obj 22 60 cnv 15 478 40 empty empty im.bouncyball 20 22 0 30 -1
-196864 0;
#X obj 11 192 cnv 15 500 20 empty empty Arguments: 10 10 0 13 -203904
-66577 0;
#X obj 11 215 cnv 15 500 20 empty empty Inlets: 34 10 0 13 -204800
-66577 0;
#X obj 11 239 cnv 15 500 20 empty empty Outlets: 25 10 0 13 -204786
-66577 0;
#X obj 11 135 cnv 15 500 50 empty empty empty 25 10 0 13 -262130 -66577
0;
#X obj 171 517 im.volume 0.15;
#X text 22 110 Joe Wright 2020;
#X obj 266 278 im.keypress q;
#X obj 44 409 im.step;
#X obj 44 433 im.sequence 0 5 6 2 4 3 1 7;
#X obj 44 457 im.scale Eb aolean 4;
#X obj 44 481 im.sinewave;
#X obj 296 337 im.snapshot;
#X text 105 194 1) Drop Height (0-1) 2) Weight (0-1);
#X text 105 240 'Bouncy ball drop' between 0-1;
#X text 17 134 Crude approximation of a bouncy ball. When the trigger
input is 1 \, the 'ball' will drop. Drop height determines the time
the ball takes to fall from 1 to 0 \, and weight determines how long
the 'ball' will bounce.;
#X obj 12 575 cnv 15 500 40 empty empty empty 25 10 0 13 -262130 -66577
0;
#X obj 266 305 im.bouncyball 0.2 0.3;
#X connect 7 0 0 0;
#X connect 9 0 19 0;
#X connect 10 0 11 0;
#X connect 11 0 12 0;
#X connect 12 0 13 0;
#X connect 13 0 7 0;
#X connect 19 0 7 1;
#X connect 19 0 10 0;
#X connect 19 0 14 0;
