#N canvas 158 126 637 716 12;
#X obj 213 628 im.speaker;
#X obj 11 446 im.sequence 0 1 4 3 7 5 2 6;
#X obj 11 409 im.step;
#X obj 11 497 im.acid;
#X obj 11 10 cnv 15 600 120 empty empty instrument_maker 10 22 0 40
-4032 -66577 0;
#X obj 22 60 cnv 15 560 40 empty empty im.strangepulses 20 22 0 30
-1 -196864 0;
#X obj 11 192 cnv 15 600 20 empty empty Arguments: 10 10 0 13 -203904
-66577 0;
#X obj 11 215 cnv 15 600 20 empty empty Inlets: 34 10 0 13 -204800
-66577 0;
#X obj 11 239 cnv 15 600 20 empty empty Outlets: 25 10 0 13 -204786
-66577 0;
#X obj 11 135 cnv 15 600 50 empty empty empty 25 10 0 13 -262130 -66577
0;
#X obj 213 446 im.sequence 0 1 4 3 7 5 2 6;
#X obj 213 410 im.step;
#X obj 213 498 im.acid;
#X obj 11 585 im.volume 0.5;
#X obj 415 409 im.step;
#X obj 415 498 im.acid;
#X text 17 317 slow \, self-propelling;
#X text 220 313 directly controllable;
#X text 220 333 regular pattern;
#X text 424 312 self propelling;
#X text 424 332 chaotic patterns;
#X obj 11 471 im.scale F# major 2;
#X obj 213 472 im.scale F# major 4;
#X obj 415 472 im.scale F# major 5;
#X obj 415 446 im.sequence 0 1 0 2 7 5 2 6;
#X text 17 134 Generate irregular repeating rhythms from a trigger
signal these can stop and start with the input signal or loop indefinitely.
;
#X obj 11 271 im.keyPress q;
#X obj 213 270 im.keyPress w;
#X obj 415 269 im.keyPress r;
#X obj 464 529 im.reverb short;
#X obj 414 588 im.volume 0.15;
#X obj 213 579 im.volume 0.6;
#X text 105 194 1) Density (0-1) 2) Feedback (0-1);
#X text 105 217 1) Density (0-1) 2) Feedback (0-1);
#X text 105 240 Patterns of pulses (0 or 1);
#X obj 464 550 im.volume 0.05;
#X text 22 110 Joe Wright 2020;
#X obj 12 657 cnv 15 600 40 empty empty empty 25 10 0 13 -262130 -66577
0;
#X obj 11 357 im.strangepulses 0.2 1;
#X obj 213 356 im.strangepulses 0.6 0;
#X obj 415 355 im.strangepulses 0.95 1;
#X connect 1 0 21 0;
#X connect 2 0 1 0;
#X connect 3 0 13 0;
#X connect 10 0 22 0;
#X connect 11 0 10 0;
#X connect 12 0 31 0;
#X connect 13 0 0 0;
#X connect 14 0 24 0;
#X connect 15 0 29 0;
#X connect 15 0 30 0;
#X connect 21 0 3 0;
#X connect 22 0 12 0;
#X connect 23 0 15 0;
#X connect 24 0 23 0;
#X connect 26 0 38 0;
#X connect 27 0 39 0;
#X connect 28 0 40 0;
#X connect 29 0 35 0;
#X connect 30 0 0 0;
#X connect 31 0 0 0;
#X connect 35 0 0 0;
#X connect 38 0 2 0;
#X connect 39 0 11 0;
#X connect 40 0 14 0;
