#N canvas 25 23 1485 673 12;
#X obj 438 141 metro 1;
#X obj 438 173 f 0;
#X obj 439 334 cos~;
#X obj 1014 347 tgl 15 0 empty empty empty 17 7 0 10 -262144 -1 -1
1 1;
#X obj 439 451 snapshot~;
#X obj 469 173 + 1;
#X obj 439 311 *~;
#X obj 632 250 snapshot~;
#X obj 632 229 -~;
#X obj 604 192 sig~;
#X obj 469 193 % 1000;
#X obj 438 225 * 0.001;
#X obj 1014 324 loadbang;
#X obj 1014 363 metro 25;
#X obj 632 275 pack;
#X obj 650 203 *~;
#X obj 632 298 line 1;
#X obj 468 63 loadbang;
#X obj 468 83 metro 5;
#X obj 438 112 snapshot~;
#X obj 448 429 receive \$0-update;
#X obj 1014 383 send \$0-update;
#X obj 1118 383 send \$0-speed;
#X obj 667 229 receive \$0-update;
#X obj 668 275 receive \$0-speed;
#X obj 650 142 receive~ \$0-feedback;
#X obj 634 363 send~ \$0-feedback;
#X msg 1077 324 1;
#X obj 604 119 loadbang;
#X obj 1077 303 t b f;
#X obj 439 506 sig~;
#X text 158 337 Cycle through wavetable when input > 0;
#X text 184 477 Turn curve into binary 0/1 patterns;
#X obj 1077 252 * 250;
#X msg 604 166 1.001;
#X obj 940 295 * 10;
#X obj 922 341 -;
#X obj 913 295 t b;
#X msg 913 319 10;
#X obj 439 476 > 0.8;
#X obj 1077 231 pow 2;
#X obj 1076 211 -;
#X msg 1062 190 1;
#X obj 1062 148 clip 0 1;
#X text 928 423 These affect the density / speed;
#X text 623 382 Send to feedback loop;
#X text 733 164 Chaos Amt affects unpredictability;
#X text 726 194 loop by themselves after triggering;
#X text 684 179 And the extent to which the pulse clouds;
#X obj 438 8 inlet~;
#X obj 439 540 outlet~;
#X obj 1289 95 loadbang;
#X obj 1062 96 loadbang;
#X obj 922 362 + 0.001;
#X obj 496 143 receive \$0-step;
#X obj 922 384 send \$0-step;
#X text 972 408 ^^ Send Rates ^^;
#X obj 1062 118 list store \$1;
#X obj 1290 117 list store \$2;
#X obj 1062 171 t b f;
#X obj 1077 281 + 1;
#X obj 1290 169 pow 6;
#X obj 1161 118 inlet;
#X obj 1389 117 inlet;
#X obj 1290 149 clip 0 1;
#X text 10 18 Strange Pulses spits out random-ish clouds of repeating
pulses relating to a trigger (0/1) input. It takes two arguments:;
#X text 6 73 - DENSITY (0-1) controls the speed and density of output
pulses.;
#X text 5 113 - FEEDBACK (0-1) determines how much the patch feeds
back on itself. A little bit of feedback may make repeating patterns
more interesting. A lot of feedback will cause the patch to 'loop'
in glitchy patterns;
#X obj 1290 188 * 0.98;
#X obj 1290 208 clip 0 0.98;
#X obj 669 100 r \$0-fdbkAmt;
#X obj 1290 236 s \$0-fdbkAmt;
#X connect 0 0 1 0;
#X connect 1 0 5 0;
#X connect 1 0 11 0;
#X connect 2 0 4 0;
#X connect 2 0 26 0;
#X connect 3 0 13 0;
#X connect 4 0 39 0;
#X connect 5 0 10 0;
#X connect 6 0 2 0;
#X connect 7 0 14 0;
#X connect 8 0 7 0;
#X connect 8 0 6 1;
#X connect 9 0 8 0;
#X connect 10 0 1 1;
#X connect 11 0 6 0;
#X connect 12 0 3 0;
#X connect 13 0 21 0;
#X connect 14 0 16 0;
#X connect 15 0 8 1;
#X connect 16 0 11 1;
#X connect 17 0 18 0;
#X connect 18 0 19 0;
#X connect 19 0 0 0;
#X connect 20 0 4 0;
#X connect 23 0 7 0;
#X connect 24 0 14 1;
#X connect 25 0 15 0;
#X connect 27 0 3 0;
#X connect 28 0 34 0;
#X connect 29 0 27 0;
#X connect 29 1 22 0;
#X connect 29 1 13 1;
#X connect 30 0 50 0;
#X connect 33 0 60 0;
#X connect 34 0 9 0;
#X connect 35 0 36 1;
#X connect 36 0 53 0;
#X connect 37 0 38 0;
#X connect 38 0 36 0;
#X connect 39 0 30 0;
#X connect 40 0 33 0;
#X connect 40 0 35 0;
#X connect 40 0 37 0;
#X connect 41 0 40 0;
#X connect 42 0 41 0;
#X connect 43 0 59 0;
#X connect 49 0 19 0;
#X connect 51 0 58 0;
#X connect 52 0 57 0;
#X connect 53 0 55 0;
#X connect 54 0 5 1;
#X connect 57 0 43 0;
#X connect 58 0 64 0;
#X connect 59 0 42 0;
#X connect 59 1 41 1;
#X connect 60 0 29 0;
#X connect 61 0 68 0;
#X connect 62 0 43 0;
#X connect 63 0 64 0;
#X connect 64 0 61 0;
#X connect 68 0 69 0;
#X connect 69 0 71 0;
#X connect 70 0 15 1;
