#N canvas 386 109 537 545 10;
#X obj 11 10 cnv 15 500 120 empty empty instrument_maker 10 22 0 40
-4032 -66577 0;
#X obj 22 60 cnv 15 478 40 empty empty im.strummi 20 22 0 30 -1 -196864
0;
#X obj 11 192 cnv 15 500 20 empty empty Arguments: 10 10 0 13 -203904
-66577 0;
#X obj 11 215 cnv 15 500 20 empty empty Inlets: 34 10 0 13 -204800
-66577 0;
#X obj 11 239 cnv 15 500 20 empty empty Outlets: 25 10 0 13 -204786
-66577 0;
#X text 21 171 comment, f 81;
#X obj 11 135 cnv 15 500 50 empty empty empty 25 10 0 13 -262130 -66577
0;
#X obj 11 464 cnv 15 500 40 empty empty empty 25 10 0 13 -262130 -66577
0;
#X obj 112 414 im.speaker;
#X text 22 110 Jacob Harrison & Alex Lucas 2020;
#X text 19 466 *http://blog.loomer.co.uk/2010/02/karplus-strong-guitar-string-synthesis.html
, f 81;
#X text 22 140 An emulation of the Strummi accessible guitar. Based
on a Kaplus-Strong implementation by Loomer*. A signal between 0 and
1 strums the guitar. Root note and chord type are defined through arguments.
, f 80;
#X text 105 195 1) Root Note e.g. Ab2 2) Chord Type \, major \, minor
or dominant, f 64;
#X text 105 217 A signal between 1 and 0;
#X text 106 240 An audio signal;
#X obj 112 307 im.keypress q;
#X obj 112 380 im.strummi C3 major;
#X obj 242 380 im.snapshot;
#X obj 112 342 im.envelope 500 1000;
#X connect 15 0 18 0;
#X connect 16 0 8 0;
#X connect 18 0 16 0;
#X connect 18 0 17 0;
