#N canvas 208 47 1472 826 12;
#X obj 912 134 snapshot~;
#X obj 962 91 bang~;
#X obj 912 186 change;
#N canvas 405 312 526 397 getString 1;
#X obj 13 8 inlet;
#X obj 114 351 outlet;
#X text 253 248 << filter zeroes;
#X msg 149 282 1;
#X msg 182 282 2;
#X msg 216 281 3;
#X msg 249 281 4;
#X msg 282 281 5;
#X msg 314 281 6;
#X obj 114 322 change;
#X obj 13 195 expr if ($f1 >= 0 && $f1 < 0.125 \, -1 \, 0);
#X obj 27 173 expr if ($f1 > 0.126 && $f1 < 0.25 \, 1 \, 0);
#X obj 43 151 expr if ($f1 >= 0.251 && $f1 < 0.375 \, 2 \, 0);
#X obj 58 129 expr if ($f1 >= 0.376 && $f1 < 0.5 \, 3 \, 0);
#X obj 71 107 expr if ($f1 >= 0.501 && $f1 < 0.625 \, 4 \, 0);
#X obj 86 85 expr if ($f1 >= 0.626 && $f1 < 0.75 \, 5 \, 0);
#X obj 101 63 expr if ($f1 >= 0.751 && $f1 < 0.875 \, 6 \, 0);
#X obj 114 41 expr if ($f1 >= 0.876 && $f1 <= 1 \, -1 \, 0);
#X msg 114 282 -1;
#X obj 114 249 sel -1 1 2 3 4 5 6;
#X text 311 195 << minus one for end zones;
#X connect 0 0 11 0;
#X connect 0 0 12 0;
#X connect 0 0 13 0;
#X connect 0 0 14 0;
#X connect 0 0 15 0;
#X connect 0 0 16 0;
#X connect 0 0 10 0;
#X connect 0 0 17 0;
#X connect 3 0 9 0;
#X connect 4 0 9 0;
#X connect 5 0 9 0;
#X connect 6 0 9 0;
#X connect 7 0 9 0;
#X connect 8 0 9 0;
#X connect 9 0 1 0;
#X connect 10 0 19 0;
#X connect 11 0 19 0;
#X connect 12 0 19 0;
#X connect 13 0 19 0;
#X connect 14 0 19 0;
#X connect 15 0 19 0;
#X connect 16 0 19 0;
#X connect 17 0 19 0;
#X connect 18 0 9 0;
#X connect 19 0 18 0;
#X connect 19 1 3 0;
#X connect 19 2 4 0;
#X connect 19 3 5 0;
#X connect 19 4 6 0;
#X connect 19 5 7 0;
#X connect 19 6 8 0;
#X restore 912 216 pd getString;
#X obj 42 190 symbol \$1;
#X obj 42 159 loadbang;
#X obj 42 215 list fromsymbol;
#X obj 42 316 list length;
#X obj 296 253 unpack 0 0 0;
#X obj 336 297 expr if ($f1 == 35 \, 1 \, if ($f1 == 98 \, -1 \, 0
));
#X text 186 215 << convert first argument to ASCII;
#X text 104 294 get accidental modifier >>;
#X obj 296 352 expr $f1 + $f2 + $f3;
#X obj 377 319 expr ($f1 - 49) * 12;
#X obj 278 411 i;
#X obj 666 255 unpack 0 0;
#X obj 733 316 expr ($f1 - 49) * 12;
#X obj 648 407 i;
#X obj 666 357 expr $f1 + $f2;
#X obj 42 378 sel 3 2;
#X obj 42 346 pipe 10;
#X text 125 274 get MIDI note number >>;
#X text 132 312 get octave modifier >>;
#N canvas 909 32 620 527 getMidiNote 0;
#X obj 40 24 inlet;
#X obj 40 49 sel 65 66 67 68 69 70 71;
#X msg 98 75 24;
#X msg 126 75 26;
#X msg 155 75 28;
#X msg 184 75 29;
#X msg 213 75 31;
#X msg 40 75 33;
#X msg 69 75 35;
#X obj 40 110 outlet;
#X connect 0 0 1 0;
#X connect 1 0 7 0;
#X connect 1 1 8 0;
#X connect 1 2 2 0;
#X connect 1 3 3 0;
#X connect 1 4 4 0;
#X connect 1 5 5 0;
#X connect 1 6 6 0;
#X connect 2 0 9 0;
#X connect 3 0 9 0;
#X connect 4 0 9 0;
#X connect 5 0 9 0;
#X connect 6 0 9 0;
#X connect 7 0 9 0;
#X connect 8 0 9 0;
#X restore 296 275 pd getMidiNote;
#N canvas -1167 483 620 527 getMidiNote 0;
#X obj 40 24 inlet;
#X obj 40 49 sel 65 66 67 68 69 70 71;
#X msg 98 75 24;
#X msg 126 75 26;
#X msg 155 75 28;
#X msg 184 75 29;
#X msg 213 75 31;
#X msg 40 75 33;
#X msg 69 75 35;
#X obj 40 110 outlet;
#X connect 0 0 1 0;
#X connect 1 0 7 0;
#X connect 1 1 8 0;
#X connect 1 2 2 0;
#X connect 1 3 3 0;
#X connect 1 4 4 0;
#X connect 1 5 5 0;
#X connect 1 6 6 0;
#X connect 2 0 9 0;
#X connect 3 0 9 0;
#X connect 4 0 9 0;
#X connect 5 0 9 0;
#X connect 6 0 9 0;
#X connect 7 0 9 0;
#X connect 8 0 9 0;
#X restore 666 276 pd getMidiNote;
#X text 389 252 << use when accidental is provided;
#X text 744 254 << no accidental;
#X obj 1066 138 sel major minor dominant;
#X msg 1066 176 0 7 12 16 19 24;
#X msg 1183 176 0 7 12 15 19 24;
#X msg 1299 176 0 7 10 16 19 22;
#X obj 1066 219 unpack 0 0 0 0 0 0;
#X msg 1066 256 set \$1;
#X msg 1119 256 set \$1;
#X msg 1172 256 set \$1;
#X msg 1225 256 set \$1;
#X msg 1279 256 set \$1;
#X msg 1332 256 set \$1;
#X msg 912 316 0;
#X msg 946 316 7;
#X msg 981 316 12;
#X msg 1015 316 16;
#X msg 1048 316 19;
#X msg 1082 316 24;
#X obj 912 255 sel 1 2 3 4 5 6;
#X obj 912 446 +;
#X obj 946 446 +;
#X obj 981 446 +;
#X obj 1015 446 +;
#X obj 1048 445 +;
#X obj 1082 445 +;
#X obj 278 449 s \$0-rootNote;
#X obj 1100 405 r \$0-rootNote;
#X obj 912 508 string~;
#X obj 970 508 string~;
#X obj 1027 508 string~;
#X obj 1084 508 string~;
#X obj 1141 508 string~;
#X obj 1198 508 string~;
#X obj 1084 569 *~ 0.16;
#X obj 1084 625 outlet~;
#X obj 1066 93 symbol \$2;
#X obj 912 91 inlet~;
#X obj 1066 66 loadbang;
#X text 644 75 inlet: strum signal (0-1);
#X text 644 57 arguments: \$1 = root note \, \$2 = chord;
#X connect 0 0 2 0;
#X connect 1 0 0 0;
#X connect 2 0 3 0;
#X connect 3 0 44 0;
#X connect 4 0 6 0;
#X connect 5 0 4 0;
#X connect 6 0 7 0;
#X connect 6 0 8 0;
#X connect 6 0 15 0;
#X connect 7 0 20 0;
#X connect 8 0 23 0;
#X connect 8 1 9 0;
#X connect 8 2 13 0;
#X connect 9 0 12 1;
#X connect 12 0 14 1;
#X connect 13 0 12 2;
#X connect 14 0 51 0;
#X connect 15 0 24 0;
#X connect 15 1 16 0;
#X connect 16 0 18 1;
#X connect 17 0 51 0;
#X connect 18 0 17 1;
#X connect 19 0 14 0;
#X connect 19 1 17 0;
#X connect 20 0 19 0;
#X connect 23 0 12 0;
#X connect 24 0 18 0;
#X connect 27 0 28 0;
#X connect 27 1 29 0;
#X connect 27 2 30 0;
#X connect 28 0 31 0;
#X connect 29 0 31 0;
#X connect 30 0 31 0;
#X connect 31 0 32 0;
#X connect 31 1 33 0;
#X connect 31 2 34 0;
#X connect 31 3 35 0;
#X connect 31 4 36 0;
#X connect 31 5 37 0;
#X connect 32 0 38 0;
#X connect 33 0 39 0;
#X connect 34 0 40 0;
#X connect 35 0 41 0;
#X connect 36 0 42 0;
#X connect 37 0 43 0;
#X connect 38 0 45 0;
#X connect 39 0 46 0;
#X connect 40 0 47 0;
#X connect 41 0 48 0;
#X connect 42 0 49 0;
#X connect 43 0 50 0;
#X connect 44 0 38 0;
#X connect 44 1 39 0;
#X connect 44 2 40 0;
#X connect 44 3 41 0;
#X connect 44 4 42 0;
#X connect 44 5 43 0;
#X connect 45 0 53 0;
#X connect 46 0 54 0;
#X connect 47 0 55 0;
#X connect 48 0 56 0;
#X connect 49 0 57 0;
#X connect 50 0 58 0;
#X connect 52 0 50 1;
#X connect 52 0 49 1;
#X connect 52 0 48 1;
#X connect 52 0 47 1;
#X connect 52 0 46 1;
#X connect 52 0 45 1;
#X connect 53 0 59 0;
#X connect 54 0 59 0;
#X connect 55 0 59 0;
#X connect 56 0 59 0;
#X connect 57 0 59 0;
#X connect 58 0 59 0;
#X connect 59 0 60 0;
#X connect 61 0 27 0;
#X connect 62 0 0 0;
#X connect 63 0 61 0;
